<svg width="25" height="28" fill="none" xmlns="http://www.w3.org/2000/svg"><path d="M24.966 26.885L23.476 7.81A.89.89 0 0022.58 7H2.402a.89.89 0 00-.897.81L.003 27.06a.861.861 0 00.237.66c.17.178.41.28.66.28h23.2c.497 0 .9-.392.9-.876a.843.843 0 00-.034-.239zM1.87 26.25l1.366-17.5h18.509l1.366 17.5H1.87z" fill="#fff"/><path d="M12.5 0C8.916 0 6 3.04 6 6.777v3.376c0 .468.364.847.813.847.448 0 .812-.38.812-.847V6.777c0-2.803 2.186-5.083 4.875-5.083s4.875 2.28 4.875 5.083v3.376c0 .468.364.847.813.847.448 0 .812-.38.812-.847V6.777C19 3.041 16.084 0 12.5 0z" fill="#fff"/></svg>