<svg width="20" height="21" fill="none" xmlns="http://www.w3.org/2000/svg"><path d="M1 15.225v2.86c0 .266.051.529.152.772s.25.462.435.641c.186.18.405.316.644.401.239.086.492.117.743.093a17.337 17.337 0 007.81-2.927 18.15 18.15 0 005.43-5.72 19.529 19.529 0 002.779-8.266 2.003 2.003 0 00-.088-.78 1.932 1.932 0 00-.378-.678 1.817 1.817 0 00-.606-.458 1.733 1.733 0 00-.73-.163h-2.714c-.44-.004-.866.16-1.199.461-.333.302-.55.72-.612 1.179a12.781 12.781 0 01-.633 2.68 2.004 2.004 0 00-.076 1.068c.072.356.24.684.483.943l1.15 1.21c-1.289 2.388-3.165 4.364-5.43 5.721l-1.15-1.21a1.785 1.785 0 00-.895-.51 1.724 1.724 0 00-1.015.08c-.82.323-1.674.547-2.543.668-.44.065-.84.298-1.128.655a1.97 1.97 0 00-.428 1.28z" stroke="#fff" stroke-width="1.3" stroke-linecap="round" stroke-linejoin="round"/></svg>