<svg width="99" height="99" fill="none" xmlns="http://www.w3.org/2000/svg"><circle opacity=".3" cx="49.506" cy="49.28" r="42" transform="rotate(-11.065 49.506 49.28)" fill="#000"/><path d="M49.5 16.684c-17.95 0-32.5 14.55-32.5 32.5 0 17.949 14.55 32.5 32.5 32.5S82 67.132 82 49.183c-.02-17.942-14.559-32.481-32.5-32.5zm13.687 33.535a2.32 2.32 0 01-1.042 1.042v.012l-18.572 9.286a2.322 2.322 0 01-3.359-2.09V39.898a2.322 2.322 0 013.36-2.078l18.57 9.286a2.321 2.321 0 011.043 3.113z" fill="#C7D30A"/></svg>