<svg width="186" height="29" fill="none" xmlns="http://www.w3.org/2000/svg"><path d="M40.288 11.83c1.166.343 2.24.724 3.224 1.143.984.422 1.834.934 2.552 1.539a6.452 6.452 0 011.676 2.169c.4.841.6 1.84.6 2.996v.119c0 1.263-.236 2.418-.71 3.47a7.945 7.945 0 01-1.967 2.702A8.903 8.903 0 0142.71 27.7c-1.129.41-2.364.614-3.7.614-1.238 0-2.422-.165-3.552-.49a13.717 13.717 0 01-3.08-1.292 12.164 12.164 0 01-2.423-1.82c-.692-.677-1.22-1.383-1.585-2.116l4.264-2.92c.46.552.922 1.047 1.385 1.48a8.4 8.4 0 001.457 1.104c.51.302 1.069.531 1.677.69a7.948 7.948 0 002.004.236c.46 0 .93-.052 1.402-.157a4.194 4.194 0 001.294-.515 3.05 3.05 0 00.948-.886c.242-.358.364-.799.364-1.325 0-.368-.085-.724-.256-1.066-.17-.342-.461-.677-.874-1.006-.413-.33-.972-.646-1.677-.95-.704-.302-1.59-.598-2.66-.89a26.555 26.555 0 01-3.534-1.164c-1.044-.434-1.931-.96-2.66-1.58a6.239 6.239 0 01-1.677-2.232c-.389-.868-.583-1.896-.583-3.08 0-1.291.226-2.456.674-3.495a7.384 7.384 0 011.878-2.629c.8-.71 1.743-1.256 2.824-1.638A10.405 10.405 0 0138.101 0c1.287 0 2.453.158 3.498.473 1.045.317 1.98.717 2.806 1.204.825.487 1.549 1.04 2.169 1.656a14.487 14.487 0 011.549 1.795L43.93 8.045c-1.044-1.077-2.034-1.832-2.969-2.267a6.885 6.885 0 00-2.934-.65c-.632 0-1.172.084-1.622.255-.45.171-.82.38-1.11.631-.292.25-.518.533-.675.848a2.02 2.02 0 00-.236.908c0 .526.128.978.382 1.36.255.382.632.729 1.13 1.045.498.316 1.117.605 1.858.867.74.264 1.584.527 2.533.79v-.001zm35.184 9.78a14.048 14.048 0 01-4.664 4.83 12.1 12.1 0 01-3.061 1.362 12.204 12.204 0 01-3.388.472c-1.798 0-3.493-.367-5.084-1.103a13.092 13.092 0 01-4.154-3.017c-1.179-1.276-2.108-2.775-2.788-4.495-.68-1.722-1.02-3.555-1.02-5.501 0-1.946.339-3.78 1.02-5.502.68-1.721 1.61-3.219 2.788-4.495a13.082 13.082 0 014.154-3.017A11.973 11.973 0 0164.36.04c1.166 0 2.295.158 3.388.474 1.093.316 2.114.769 3.061 1.36a13.752 13.752 0 012.606 2.11 14.113 14.113 0 012.058 2.721L71.21 9.663c-.68-1.42-1.615-2.556-2.806-3.412-1.19-.854-2.538-1.28-4.044-1.28a6.53 6.53 0 00-3.026.729 8.062 8.062 0 00-2.476 1.97c-.706.83-1.265 1.802-1.677 2.919a10.205 10.205 0 00-.619 3.569c0 1.26.206 2.452.62 3.569.411 1.117.97 2.089 1.676 2.918a8.05 8.05 0 002.476 1.97c.948.488 1.956.73 3.026.73 1.506 0 2.854-.426 4.044-1.28 1.19-.855 2.126-1.992 2.806-3.412l4.263 2.958zm18.243-4.653H88.03l-2.37-5.126h8.054v5.127zM96.74.357l.037 4.613h-11.99l-.036 18.416H96.74v4.574H79.648V.356H96.74zm17.693-.001h6.742v4.81h-4.519l-2.223-4.81zm-.765 0v27.603h-5.247V5.167h-7.507V.357h12.754V.356zM134.937 0c1.797 0 3.473.376 5.029 1.124a12.915 12.915 0 014.045 3.036c1.141 1.276 2.034 2.774 2.678 4.496.643 1.722.965 3.555.965 5.501 0 1.656-.231 3.234-.692 4.732a14.378 14.378 0 01-1.968 4.062 13.074 13.074 0 01-3.043 3.094 11.494 11.494 0 01-3.88 1.835l-2.551-4.694a6.172 6.172 0 002.788-.886 7.868 7.868 0 002.169-1.971c.606-.802 1.079-1.736 1.42-2.8.34-1.066.51-2.189.51-3.372a10.79 10.79 0 00-.565-3.509c-.377-1.104-.892-2.064-1.548-2.879a7.338 7.338 0 00-2.35-1.933c-.911-.472-1.914-.708-3.007-.708-1.094 0-2.096.236-3.006.708a7.49 7.49 0 00-2.368 1.933c-.669.815-1.191 1.774-1.569 2.879a10.817 10.817 0 00-.563 3.51c0 1.236.188 2.405.563 3.51.378 1.104.9 2.064 1.569 2.877a7.488 7.488 0 002.368 1.933c.91.473 1.912.71 3.006.71v5.127c-1.798 0-3.474-.368-5.029-1.105a12.456 12.456 0 01-4.044-3.036c-1.143-1.287-2.036-2.794-2.679-4.514-.644-1.722-.966-3.556-.966-5.502 0-1.945.322-3.779.966-5.5.643-1.723 1.536-3.22 2.679-4.497a12.868 12.868 0 014.044-3.036c1.555-.748 3.231-1.124 5.029-1.124V0zm28.808 14.591h-4.52v4.852h-3.098V14.59h-4.482v-3.35h4.482V6.35h3.098v4.889h4.52v3.351z" fill="#fff"/><path d="M177.18 16.878l-2.369-5.126h8.09v5.126h-5.721zM168.762.317h17.236v4.691H173.9v22.95h-5.138V.317z" fill="#C7D30A"/><path d="M26.308 27.96L17.54 4.602 13.518 8.46l5.372 14.31h-7.12l-2.369 5.127h11.412l.023.061h5.471zM10.4.104L0 27.96h5.472L15.835.104h-5.436z" fill="#fff"/></svg>