<svg width="27" height="30" fill="none" xmlns="http://www.w3.org/2000/svg"><path d="M26.526 28.566l-1.582-20.27a.945.945 0 00-.954-.858H2.552c-.5 0-.916.374-.953.86L.003 28.75a.915.915 0 00.252.701c.18.19.435.298.701.298h24.651a.944.944 0 00.956-.93.896.896 0 00-.037-.254zM1.987 27.89L3.439 9.297h19.665l1.451 18.594H1.987z" fill="#fff"/><path d="M13.281 0C9.473 0 6.375 3.23 6.375 7.2v3.588c0 .496.387.9.863.9.477 0 .864-.404.864-.9V7.2c0-2.979 2.323-5.401 5.18-5.401 2.856 0 5.179 2.422 5.179 5.4v3.588c0 .496.387.9.863.9.477 0 .863-.404.863-.9V7.2C20.188 3.23 17.09 0 13.282 0z" fill="#fff"/></svg>