<svg width="180" height="27" fill="none" xmlns="http://www.w3.org/2000/svg"><path d="M38.985 11.281c1.13.327 2.17.69 3.12 1.09.953.402 1.775.89 2.47 1.467a6.162 6.162 0 011.623 2.068c.387.802.58 1.754.58 2.857v.113c0 1.205-.229 2.306-.687 3.309a7.582 7.582 0 01-1.904 2.577 8.645 8.645 0 01-2.857 1.652c-1.092.39-2.287.585-3.58.585-1.199 0-2.344-.156-3.438-.467a13.379 13.379 0 01-2.98-1.231 11.762 11.762 0 01-2.345-1.735c-.67-.646-1.181-1.32-1.534-2.018l4.126-2.784c.447.525.893.997 1.34 1.41.447.413.918.764 1.411 1.053a6.306 6.306 0 001.622.658c.587.15 1.234.225 1.94.225.446 0 .9-.05 1.357-.15a4.094 4.094 0 001.252-.491c.376-.224.682-.507.917-.845.234-.34.352-.761.352-1.263 0-.351-.082-.69-.247-1.016-.165-.327-.446-.647-.846-.96-.4-.315-.94-.616-1.622-.905-.682-.288-1.54-.571-2.574-.849a25.972 25.972 0 01-3.42-1.11c-1.011-.414-1.87-.917-2.576-1.507a5.96 5.96 0 01-1.622-2.128c-.376-.828-.564-1.808-.564-2.938 0-1.23.218-2.34.652-3.332A7.044 7.044 0 0130.77 2.11c.774-.678 1.686-1.198 2.733-1.562A10.169 10.169 0 0136.87 0c1.245 0 2.373.15 3.384.451 1.012.302 1.916.684 2.716 1.148.798.464 1.498.991 2.099 1.579.598.59 1.098 1.16 1.498 1.712l-4.056 2.78c-1.01-1.027-1.969-1.747-2.873-2.162a6.746 6.746 0 00-2.84-.62c-.61 0-1.134.08-1.57.244-.434.163-.792.363-1.073.602a2.58 2.58 0 00-.653.809 1.904 1.904 0 00-.229.865c0 .501.124.933.37 1.297.247.364.611.695 1.093.997.482.3 1.081.576 1.798.826a36.61 36.61 0 002.451.753zm34.052 9.326a13.41 13.41 0 01-1.992 2.592 13.258 13.258 0 01-2.522 2.013 11.73 11.73 0 01-2.963 1.298c-1.057.3-2.15.45-3.278.45-1.74 0-3.38-.35-4.92-1.052a12.664 12.664 0 01-4.02-2.876c-1.141-1.216-2.04-2.646-2.698-4.286-.659-1.642-.988-3.39-.988-5.246 0-1.855.328-3.604.988-5.246.658-1.642 1.558-3.07 2.697-4.287a12.654 12.654 0 014.021-2.876 11.732 11.732 0 014.92-1.053c1.129 0 2.221.15 3.278.452 1.058.301 2.047.733 2.963 1.297a13.277 13.277 0 012.522 2.012 13.476 13.476 0 011.992 2.594l-4.126 2.82c-.659-1.353-1.564-2.437-2.716-3.253-1.151-.814-2.455-1.22-3.913-1.22-1.036 0-2.01.23-2.928.695a7.784 7.784 0 00-2.397 1.88 9.085 9.085 0 00-1.622 2.782c-.4 1.066-.6 2.2-.6 3.403a9.6 9.6 0 00.6 3.403 9.085 9.085 0 001.622 2.783 7.772 7.772 0 002.397 1.879 6.394 6.394 0 002.928.695c1.457 0 2.762-.405 3.913-1.22 1.153-.815 2.058-1.9 2.716-3.254l4.126 2.82zM90.69 16.17h-5.5l-2.293-4.888h7.794v4.888zM93.619.34l.036 4.4H82.052l-.036 17.56h11.602v4.361h-16.54V.34h16.54zm17.124 0h6.524v4.586h-4.373L110.743.34zm-.74 0v26.32h-5.079V4.927H97.66V.34h12.343zM130.581 0c1.739 0 3.362.359 4.867 1.072a12.468 12.468 0 013.914 2.895c1.105 1.217 1.969 2.645 2.592 4.287s.935 3.39.935 5.246c0 1.579-.224 3.083-.671 4.512a13.584 13.584 0 01-1.904 3.873 12.564 12.564 0 01-2.945 2.95 11.185 11.185 0 01-3.755 1.75l-2.469-4.476a6.037 6.037 0 002.699-.844 7.598 7.598 0 002.099-1.88c.586-.765 1.044-1.655 1.373-2.67.33-1.016.495-2.088.495-3.215 0-1.178-.183-2.293-.547-3.347-.365-1.053-.864-1.968-1.498-2.745a7.081 7.081 0 00-2.275-1.843c-.881-.45-1.851-.676-2.909-.676-1.059 0-2.029.226-2.91.676a7.227 7.227 0 00-2.291 1.843c-.648.777-1.153 1.692-1.518 2.745a10.146 10.146 0 00-.545 3.347c0 1.179.181 2.293.545 3.346.365 1.054.87 1.969 1.518 2.745a7.225 7.225 0 002.291 1.842c.881.452 1.851.677 2.91.677V27c-1.74 0-3.363-.351-4.868-1.054a12.045 12.045 0 01-3.913-2.895c-1.106-1.227-1.97-2.664-2.592-4.304-.624-1.642-.936-3.39-.936-5.246 0-1.856.312-3.604.936-5.246.622-1.642 1.486-3.07 2.592-4.287a12.444 12.444 0 013.913-2.895c1.505-.714 3.128-1.072 4.868-1.072L130.581 0zm27.883 13.913h-4.374v4.627h-2.998v-4.627h-4.338v-3.195h4.338V6.056h2.998v4.662h4.374v3.195z" fill="#fff"/><path d="M171.467 16.094l-2.293-4.888h7.83v4.888h-5.537zM163.32.302h16.681v4.474h-11.708V26.66h-4.973V.3z" fill="#C7D30A"/><path d="M25.458 26.66L16.972 4.39 13.08 8.067l5.198 13.646H11.39l-2.292 4.888H20.14l.022.059h5.295zM10.064.1L0 26.66h5.295L15.324.1h-5.26z" fill="#fff"/></svg>